<svg
    xmlns="http://www.w3.org/2000/svg"
    viewBox="0 0 24 24"
    id="vector">
    <path
        id="path"
        d="M 3 6 C 2.45 6 2 6.45 2 7 L 2 20 C 2 21.1 2.9 22 4 22 L 17 22 C 17.55 22 18 21.55 18 21 C 18 20.45 17.55 20 17 20 L 5 20 C 4.45 20 4 19.55 4 19 L 4 7 C 4 6.45 3.55 6 3 6 Z M 20 2 L 8 2 C 6.9 2 6 2.9 6 4 L 6 16 C 6 17.1 6.9 18 8 18 L 20 18 C 21.1 18 22 17.1 22 16 L 22 4 C 22 2.9 21.1 2 20 2 Z M 18 11 L 15 11 L 15 14 C 15 14.55 14.55 15 14 15 C 13.45 15 13 14.55 13 14 L 13 11 L 10 11 C 9.45 11 9 10.55 9 10 C 9 9.45 9.45 9 10 9 L 13 9 L 13 6 C 13 5.45 13.45 5 14 5 C 14.55 5 15 5.45 15 6 L 15 9 L 18 9 C 18.55 9 19 9.45 19 10 C 19 10.55 18.55 11 18 11 Z"
        fill="#000000"
        stroke-width="1"/>
</svg>
