<svg
    xmlns="http://www.w3.org/2000/svg"
    viewBox="0 0 24 24"
    id="vector">
    <path
        id="path_1"
        d="M 19 3 L 5 3 C 3.89 3 3 3.9 3 5 L 3 19 C 3 20.1 3.89 21 5 21 L 19 21 C 20.1 21 21 20.1 21 19 L 21 5 C 21 3.9 20.1 3 19 3 Z M 16 13 L 13 13 L 13 16 C 13 16.55 12.55 17 12 17 C 11.45 17 11 16.55 11 16 L 11 13 L 8 13 C 7.45 13 7 12.55 7 12 C 7 11.45 7.45 11 8 11 L 11 11 L 11 8 C 11 7.45 11.45 7 12 7 C 12.55 7 13 7.45 13 8 L 13 11 L 16 11 C 16.55 11 17 11.45 17 12 C 17 12.55 16.55 13 16 13 Z"
        fill="#000000"
        stroke-width="1"/>
</svg>
